:SAMPLES-PER-SECOND 30
:FULLY-SPECIFIED
:DEGREES
99
root  -22.92355515 38.55133657 40.0244435 -0.2493031323 0.05522044376 3.686949968
lowerback  7.843870163 -0.2855279744 -6.341050148
upperback  1.87372005 -0.8708729744 0.6336359978
thorax  -2.347059965 -0.4043770134 4.310900211
lowerneck  -13.87950039 4.817540169 -3.349119902
upperneck  26.43989944 7.113930225 2.187370062
head  10.55589962 3.186990023 2.26376009
lclavicle  0 -5.34481991e-014 2.981770104e-014
lhumerus  -16.33790016 0.1346668005 85.94309998
lradius  0.003583191894 6.643666666e-007 34.71001816
lwrist  -1.645157397e-007 -3.533851896e-007 -0.6103929877
lhand  -5.505032044e-031 -15.8135004 33.60620117
lfingers  90 7.125020027 -90
lthumb  93.41605384 18.01962653 79.07819387
rclavicle  0 -5.34481991e-014 2.981770104e-014
rhumerus  -40.11029816 -20.14150047 -71.37750244
rradius  -1.296506525e-006 2.359789448e-007 38.67829895
rwrist  -2.281664457e-008 -8.593936229e-009 13.32839966
rhand  -1.345748685e-031 10.2737999 9.996669769
rfingers  -90 -7.125020027 -90
rthumb  -72.52445805 -22.91766803 -51.04506765
rfemur  -35.30319595 -2.453420162 17.29859734
rtibia  9.670418422e-007 1.119611625e-006 39.58878708
rfoot  2.556521167e-006 -9.517692566 -5.686689854
rtoes  2.336001174 19.8686595 -96.84438506
lfemur  1.324636936 -1.193078876 -28.2100029
ltibia  -3.641206786e-005 2.004581745e-007 20.10898781
lfoot  -5.693161143e-007 -15.5864954 -1.838539004
ltoes  -5.298979543 -19.31302686 -105.6655569
100
root  -22.91266674 38.5131115 40.26755686 -0.2743090987 -0.06623159349 4.067910194
lowerback  7.762650013 -0.3627900183 -6.528689861
upperback  1.921219945 -0.9819589853 0.6095359921
thorax  -2.23574996 -0.4639950097 4.400030136
lowerneck  -13.85919952 4.896719933 -3.286710024
upperneck  26.50189972 7.217529774 2.156859636
head  10.57540035 3.234960079 2.256659746
lclavicle  0 -5.34481991e-014 2.981770104e-014
lhumerus  -16.43740082 0.05666298047 86.020401
lradius  0.003583191894 6.643666666e-007 34.7204361
lwrist  -1.645157397e-007 -3.533851896e-007 -0.6437889338
lhand  -5.505032044e-031 -15.8135004 33.60620117
lfingers  90 7.125020027 -90
lthumb  93.41605384 18.01962653 79.07819387
rclavicle  0 -5.34481991e-014 2.981770104e-014
rhumerus  -39.84420013 -20.44409943 -71.26119995
rradius  -1.296506525e-006 2.359789448e-007 38.19029999
rwrist  -2.281664457e-008 -8.593936229e-009 13.20370007
rhand  -1.345748685e-031 10.2737999 9.996669769
rfingers  -90 -7.125020027 -90
rthumb  -72.52445805 -22.91766803 -51.04506765
rfemur  -35.42700195 -2.521420002 16.93240166
rtibia  9.670418422e-007 1.119611625e-006 39.13240814
rfoot  2.556521167e-006 -9.2634058 -5.683040142
rtoes  2.336001174 19.8686595 -96.84438506
lfemur  1.90387702 -1.073401928 -28.66259193
ltibia  -3.641206786e-005 2.004581745e-007 19.89042473
lfoot  -5.693161143e-007 -15.73651028 -1.794422269
ltoes  -5.298979543 -19.31302686 -105.6655569
101
root  -22.91155537 38.4651124 40.50111245 -0.1717440337 -0.2940962315 4.449319839
lowerback  7.576049805 -0.3917370439 -6.747990131
upperback  1.906970024 -1.025439978 0.5729749799
thorax  -2.137599945 -0.4880050123 4.486249924
lowerneck  -13.67529964 4.975790024 -3.234549999
upperneck  26.50460052 7.293400288 2.205320358
head  10.53740025 3.281709909 2.267450094
lclavicle  0 -5.34481991e-014 2.981770104e-014
lhumerus  -16.59119987 0.008766201325 86.05989838
lradius  0.003583191894 6.643666666e-007 34.76221848
lwrist  -1.645157397e-007 -3.533851896e-007 -0.7773721218
lhand  -5.505032044e-031 -15.8135004 33.60620117
lfingers  90 7.125020027 -90
lthumb  93.41605384 18.01962653 79.07819387
rclavicle  0 -5.34481991e-014 2.981770104e-014
rhumerus  -39.82139969 -20.88289833 -71.02549744
rradius  -1.296506525e-006 2.359789448e-007 38.05009842
rwrist  -2.281664457e-008 -8.593936229e-009 13.68109894
rhand  -1.345748685e-031 10.2737999 9.996669769
rfingers  -90 -7.125020027 -90
rthumb  -72.52445805 -22.91766803 -51.04506765
rfemur  -35.73810196 -2.364168167 16.5531044
rtibia  9.670418422e-007 1.119611625e-006 38.72301102
rfoot  2.556521167e-006 -8.98767662 -5.593359947
rtoes  2.336001174 19.8686595 -96.84438506
lfemur  2.319301128 -0.9700884819 -29.11298752
ltibia  -3.641206786e-005 2.004581745e-007 19.61013222
lfoot  -5.693161143e-007 -15.91421318 -1.637353182
ltoes  -5.298979543 -19.31302686 -105.6655569
102
root  -22.92333288 38.42488987 40.72844438 -0.05117823556 -0.5818683505 4.380030155
lowerback  7.501729965 -0.4387229979 -6.620669842
upperback  1.878190041 -1.070119977 0.7121250033
thorax  -2.120340109 -0.5106729865 4.562689781
lowerneck  -13.80729961 5.041250229 -3.260200024
upperneck  26.73699951 7.374149323 2.30622983
head  10.6402998 3.321249962 2.329819918
lclavicle  0 -5.34481991e-014 2.981770104e-014
lhumerus  -16.71240044 -0.03137309849 86.10279846
lradius  0.003583191894 6.643666666e-007 34.7287178
lwrist  -1.645157397e-007 -3.533851896e-007 -0.7187690139
lhand  -5.505032044e-031 -15.8135004 33.60620117
lfingers  90 7.125020027 -90
lthumb  93.41605384 18.01962653 79.07819387
rclavicle  0 -5.34481991e-014 2.981770104e-014
rhumerus  -39.86819839 -20.95789719 -70.91819763
rradius  -1.296506525e-006 2.359789448e-007 38.18489838
rwrist  -2.281664457e-008 -8.593936229e-009 13.91849995
rhand  -1.345748685e-031 10.2737999 9.996669769
rfingers  -90 -7.125020027 -90
rthumb  -72.52445805 -22.91766803 -51.04506765
rfemur  -35.99200439 -1.963380933 16.63549995
rtibia  9.670418422e-007 1.119611625e-006 38.3502121
rfoot  2.556521167e-006 -8.996878624 -5.408882141
rtoes  2.336001174 19.8686595 -96.84438506
lfemur  2.73329854 -0.8125439882 -29.0269928
ltibia  -3.641206786e-005 2.004581745e-007 19.25032234
lfoot  -5.693161143e-007 -16.06241226 -1.521232486
ltoes  -5.298979543 -19.31302686 -105.6655569
103
root  -22.92000027 38.39133255 40.96577862 0.01549030282 -0.6797568798 4.456999779
lowerback  7.558589935 -0.5432299972 -6.533909798
upperback  1.809859991 -1.205870032 0.8178619742
thorax  -2.205440044 -0.5738599896 4.638259888
lowerneck  -13.78899956 5.093090057 -3.335279942
upperneck  26.84819984 7.446070194 2.381060123
head  10.66849995 3.352869987 2.380330324
lclavicle  0 -5.34481991e-014 2.981770104e-014
lhumerus  -16.88929939 -0.1163673624 86.2039032
lradius  0.003583191894 6.643666666e-007 34.63014603
lwrist  -1.645157397e-007 -3.533851896e-007 -0.5123919249
lhand  -5.505032044e-031 -15.8135004 33.60620117
lfingers  90 7.125020027 -90
lthumb  93.41605384 18.01962653 79.07819387
rclavicle  0 -5.34481991e-014 2.981770104e-014
rhumerus  -40.00249863 -20.88439941 -70.79560089
rradius  -1.296506525e-006 2.359789448e-007 38.38470078
rwrist  -2.281664457e-008 -8.593936229e-009 13.99909973
rhand  -1.345748685e-031 10.2737999 9.996669769
rfingers  -90 -7.125020027 -90
rthumb  -72.52445805 -22.91766803 -51.04506765
rfemur  -36.1483078 -1.848799586 16.50469971
rtibia  9.670418422e-007 1.119611625e-006 38.04030991
rfoot  2.556521167e-006 -9.211745262 -4.922440529
rtoes  2.336001174 19.8686595 -96.84438506
lfemur  3.207834721 -0.7018006444 -29.11268425
ltibia  -3.641206786e-005 2.004581745e-007 18.94934464
lfoot  -5.693161143e-007 -16.12441635 -1.593874454
ltoes  -5.298979543 -19.31302686 -105.6655569
104
root  -22.90822277 38.36444344 41.2179992 0.03879637271 -0.7300592065 4.726059914
lowerback  7.475349903 -0.6597459912 -6.561699867
upperback  1.832389951 -1.35571003 0.8420199752
thorax  -2.115080118 -0.6523029804 4.689970016
lowerneck  -13.57530022 5.190279961 -3.211030006
upperneck  26.72360039 7.563109875 2.289619446
head  10.58640003 3.411809921 2.329190254
lclavicle  0 -5.34481991e-014 2.981770104e-014
lhumerus  -17.07939911 -0.1989882588 86.271698
lradius  0.003583191894 6.643666666e-007 34.59949875
lwrist  -1.645157397e-007 -3.533851896e-007 -0.3546738625
lhand  -5.505032044e-031 -15.8135004 33.60620117
lfingers  90 7.125020027 -90
lthumb  93.41605384 18.01962653 79.07819387
rclavicle  0 -5.34481991e-014 2.981770104e-014
rhumerus  -40.08060074 -20.98480034 -70.67790222
rradius  -1.296506525e-006 2.359789448e-007 38.59389877
rwrist  -2.281664457e-008 -8.593936229e-009 14.20880032
rhand  -1.345748685e-031 10.2737999 9.996669769
rfingers  -90 -7.125020027 -90
rthumb  -72.52445805 -22.91766803 -51.04506765
rfemur  -36.27410889 -1.855039239 16.1217041
rtibia  9.670418422e-007 1.119611625e-006 37.80411911
rfoot  2.556521167e-006 -9.377334595 -4.256550312
rtoes  2.336001174 19.8686595 -96.84438506
lfemur  3.75726819 -0.6910620928 -29.45139122
ltibia  -3.641206786e-005 2.004581745e-007 18.68802643
lfoot  -5.693161143e-007 -16.3394146 -1.590193391
ltoes  -5.298979543 -19.31302686 -105.6655569
105
root  -22.90444412 38.33088912 41.45688936 0.2169559002 -0.8074872494 5.036379814
lowerback  7.262919903 -0.7608609796 -6.666689873
upperback  1.870210052 -1.480800033 0.8779950142
thorax  -1.937280059 -0.7218819857 4.79144001
lowerneck  -13.71150017 5.282889843 -3.070970058
upperneck  26.79030037 7.697810173 2.168720484
head  10.64579964 3.469209909 2.287820101
lclavicle  0 -5.34481991e-014 2.981770104e-014
lhumerus  -17.10519981 -0.2368301451 86.39320374
lradius  0.003583191894 6.643666666e-007 34.43669891
lwrist  -1.645157397e-007 -3.533851896e-007 -0.3261079788
lhand  -5.505032044e-031 -15.8135004 33.60620117
lfingers  90 7.125020027 -90
lthumb  93.41605384 18.01962653 79.07819387
rclavicle  0 -5.34481991e-014 2.981770104e-014
rhumerus  -40.03450012 -20.98160172 -70.66200256
rradius  -1.296506525e-006 2.359789448e-007 38.98160172
rwrist  -2.281664457e-008 -8.593936229e-009 14.27359962
rhand  -1.345748685e-031 10.2737999 9.996669769
rfingers  -90 -7.125020027 -90
rthumb  -72.52445805 -22.91766803 -51.04506765
rfemur  -36.59781265 -1.715319037 15.69510174
rtibia  9.670418422e-007 1.119611625e-006 37.69613266
rfoot  2.556521167e-006 -9.31702137 -3.780622005
rtoes  2.336001174 19.8686595 -96.84438506
lfemur  4.144598484 -0.6427203417 -29.80187988
ltibia  -3.641206786e-005 2.004581745e-007 18.31325912
lfoot  -5.693161143e-007 -16.44082642 -1.58625567
ltoes  -5.298979543 -19.31302686 -105.6655569
